<svg width="23" height="12" viewBox="0 0 23 12" fill="none" xmlns="http://www.w3.org/2000/svg">
<path d="M1.35661 0.458879C1.66007 0.165059 2.07159 0 2.50069 0C2.92978 0 3.34131 0.165059 3.64477 0.458879L11.655 8.21692L19.6652 0.458879C19.9704 0.173386 20.3791 0.0154122 20.8034 0.0189831C21.2277 0.022554 21.6336 0.187384 21.9336 0.47797C22.2337 0.768557 22.4038 1.16165 22.4075 1.57259C22.4112 1.98352 22.2481 2.37942 21.9533 2.67501L12.7991 11.5411C12.4956 11.8349 12.0841 12 11.655 12C11.2259 12 10.8144 11.8349 10.5109 11.5411L1.35661 2.67501C1.05324 2.3811 0.882812 1.98253 0.882812 1.56695C0.882812 1.15136 1.05324 0.752787 1.35661 0.458879Z" fill="white"/>
</svg>
