<svg width="380" height="53" viewBox="0 0 380 53" fill="none" xmlns="http://www.w3.org/2000/svg">
<g filter="url(#filter0_b_127_695)">
<path d="M179 47.0063C179 49.7774 176.709 52.0221 173.874 52.0221H6.13243C3.2995 52.0221 1 49.7774 1 47.0063V7.00674C1 4.23691 3.2995 1.98438 6.13243 1.98438H173.873C176.709 1.98438 178.999 4.23691 178.999 7.00674L179 47.0063Z" fill="white" fill-opacity="0.08"/>
</g>
<path d="M40.1695 26.723C40.1308 22.5331 43.6881 20.4947 43.8508 20.3998C41.8361 17.5359 38.7135 17.1446 37.6161 17.1134C34.9935 16.8443 32.4495 18.6435 31.1135 18.6435C29.7508 18.6435 27.6935 17.1394 25.4761 17.1836C22.6228 17.2265 19.9535 18.8372 18.4895 21.3384C15.4681 26.4383 17.7215 33.9328 20.6161 38.0551C22.0641 40.074 23.7561 42.3282 25.9708 42.2489C28.1375 42.1618 28.9468 40.9021 31.5615 40.9021C34.1521 40.9021 34.9121 42.2489 37.1708 42.1982C39.4961 42.1618 40.9601 40.1702 42.3575 38.1331C44.0308 35.8191 44.7028 33.5402 44.7295 33.4232C44.6748 33.405 40.2135 31.7449 40.1695 26.723Z" fill="white"/>
<path d="M35.9028 14.4016C37.0681 12.9807 37.8655 11.0476 37.6441 9.08594C35.9575 9.15874 33.8481 10.2234 32.6335 11.6131C31.5588 12.8377 30.5988 14.8449 30.8468 16.7325C32.7415 16.8703 34.6868 15.8004 35.9028 14.4016Z" fill="white"/>
<path d="M65.3997 14.0103C65.3997 15.5404 64.9291 16.6922 63.989 17.4657C63.1184 18.1794 61.881 18.5369 60.2784 18.5369C59.4837 18.5369 58.8037 18.5031 58.2344 18.4355V10.0752C58.977 9.95824 59.777 9.89844 60.641 9.89844C62.1677 9.89844 63.3184 10.2221 64.0944 10.8695C64.9637 11.6014 65.3997 12.6479 65.3997 14.0103ZM63.9264 14.048C63.9264 13.0561 63.657 12.2956 63.1184 11.7652C62.5797 11.2361 61.793 10.9709 60.757 10.9709C60.317 10.9709 59.9424 10.9995 59.6317 11.0593V17.415C59.8037 17.441 60.1184 17.4527 60.5757 17.4527C61.645 17.4527 62.4704 17.1628 63.0517 16.583C63.6331 16.0032 63.9264 15.1582 63.9264 14.048Z" fill="white"/>
<path d="M73.2107 15.3491C73.2107 16.2916 72.9347 17.0638 72.3827 17.6696C71.804 18.2923 71.0374 18.603 70.08 18.603C69.1574 18.603 68.4227 18.3053 67.8747 17.7073C67.328 17.1106 67.0547 16.3579 67.0547 15.4505C67.0547 14.5015 67.336 13.7228 67.9014 13.1183C68.4667 12.5138 69.2267 12.2109 70.184 12.2109C71.1067 12.2109 71.848 12.5086 72.4094 13.1053C72.9427 13.6851 73.2107 14.4339 73.2107 15.3491ZM71.7614 15.3933C71.7614 14.8278 71.636 14.3429 71.3867 13.9386C71.0934 13.4498 70.676 13.2054 70.1334 13.2054C69.572 13.2054 69.1454 13.4498 68.852 13.9386C68.6014 14.3429 68.4774 14.8356 68.4774 15.418C68.4774 15.9835 68.6027 16.4684 68.852 16.8727C69.1547 17.3615 69.576 17.6059 70.12 17.6059C70.6534 17.6059 71.072 17.3576 71.3734 16.8597C71.632 16.4476 71.7614 15.9588 71.7614 15.3933Z" fill="white"/>
<path d="M83.6848 12.3359L81.7181 18.4641H80.4381L79.6235 15.803C79.4168 15.1387 79.2488 14.4783 79.1181 13.8231H79.0928C78.9715 14.4965 78.8035 15.1556 78.5875 15.803L77.7221 18.4641H76.4275L74.5781 12.3359H76.0141L76.7248 15.2492C76.8968 15.9382 77.0381 16.5947 77.1515 17.2161H77.1768C77.2808 16.7039 77.4528 16.0513 77.6955 15.2622L78.5875 12.3372H79.7261L80.5808 15.1998C80.7875 15.8979 80.9555 16.57 81.0848 17.2174H81.1235C81.2181 16.5869 81.3608 15.9148 81.5501 15.1998L82.3128 12.3372H83.6848V12.3359Z" fill="white"/>
<path d="M90.9312 18.46H89.5339V14.95C89.5339 13.8684 89.1125 13.3276 88.2672 13.3276C87.8525 13.3276 87.5179 13.4758 87.2579 13.7735C87.0005 14.0712 86.8699 14.4222 86.8699 14.8239V18.4587H85.4725V14.0829C85.4725 13.5447 85.4552 12.961 85.4219 12.3292H86.6499L86.7152 13.2873H86.7539C86.9165 12.9896 87.1592 12.7439 87.4779 12.5476C87.8565 12.3188 88.2805 12.2031 88.7445 12.2031C89.3312 12.2031 89.8192 12.3877 90.2072 12.7582C90.6899 13.2119 90.9312 13.8892 90.9312 14.7888V18.46Z" fill="white"/>
<path d="M94.7866 18.4635H93.3906V9.52344H94.7866V18.4635Z" fill="white"/>
<path d="M103.008 15.3491C103.008 16.2916 102.732 17.0638 102.18 17.6696C101.601 18.2923 100.833 18.603 99.8769 18.603C98.9529 18.603 98.2182 18.3053 97.6716 17.7073C97.1249 17.1106 96.8516 16.3579 96.8516 15.4505C96.8516 14.5015 97.1329 13.7228 97.6982 13.1183C98.2636 12.5138 99.0236 12.2109 99.9796 12.2109C100.904 12.2109 101.644 12.5086 102.206 13.1053C102.74 13.6851 103.008 14.4339 103.008 15.3491ZM101.557 15.3933C101.557 14.8278 101.432 14.3429 101.182 13.9386C100.89 13.4498 100.472 13.2054 99.9302 13.2054C99.3676 13.2054 98.9409 13.4498 98.6489 13.9386C98.3982 14.3429 98.2742 14.8356 98.2742 15.418C98.2742 15.9835 98.3996 16.4684 98.6489 16.8727C98.9516 17.3615 99.3729 17.6059 99.9169 17.6059C100.45 17.6059 100.868 17.3576 101.169 16.8597C101.429 16.4476 101.557 15.9588 101.557 15.3933Z" fill="white"/>
<path d="M109.769 18.4639H108.515L108.411 17.758H108.372C107.943 18.3209 107.331 18.603 106.536 18.603C105.943 18.603 105.463 18.4171 105.101 18.0479C104.773 17.7125 104.609 17.2952 104.609 16.7999C104.609 16.0511 104.929 15.4804 105.573 15.0852C106.216 14.69 107.12 14.4963 108.284 14.5054V14.391C108.284 13.5837 107.849 13.1807 106.979 13.1807C106.359 13.1807 105.812 13.3328 105.34 13.6344L105.056 12.74C105.64 12.3877 106.361 12.2109 107.212 12.2109C108.855 12.2109 109.679 13.0559 109.679 14.7459V17.0027C109.679 17.615 109.709 18.1025 109.769 18.4639ZM108.319 16.3579V15.4128C106.777 15.3868 106.007 15.7989 106.007 16.6478C106.007 16.9676 106.095 17.2068 106.275 17.3667C106.455 17.5266 106.684 17.6059 106.957 17.6059C107.264 17.6059 107.551 17.511 107.812 17.3225C108.075 17.1327 108.236 16.8922 108.296 16.5971C108.311 16.5308 108.319 16.4502 108.319 16.3579Z" fill="white"/>
<path d="M117.711 18.4635H116.471L116.406 17.4794H116.367C115.971 18.2282 115.296 18.6026 114.348 18.6026C113.591 18.6026 112.96 18.3127 112.46 17.7329C111.96 17.1531 111.711 16.4004 111.711 15.4761C111.711 14.4842 111.982 13.6808 112.526 13.0672C113.052 12.4952 113.698 12.2092 114.466 12.2092C115.31 12.2092 115.9 12.4861 116.236 13.0412H116.263V9.52344H117.662V16.8125C117.662 17.4092 117.678 17.9591 117.711 18.4635ZM116.263 15.8791V14.8573C116.263 14.6805 116.25 14.5375 116.224 14.4283C116.146 14.1007 115.976 13.8251 115.719 13.6028C115.459 13.3805 115.146 13.2687 114.784 13.2687C114.263 13.2687 113.855 13.4702 113.555 13.8745C113.258 14.2788 113.107 14.7949 113.107 15.4254C113.107 16.0312 113.25 16.5226 113.536 16.9009C113.839 17.3039 114.247 17.5054 114.758 17.5054C115.216 17.5054 115.583 17.3377 115.862 17.001C116.131 16.6903 116.263 16.3159 116.263 15.8791Z" fill="white"/>
<path d="M129.664 15.3491C129.664 16.2916 129.388 17.0638 128.836 17.6696C128.257 18.2923 127.492 18.603 126.533 18.603C125.612 18.603 124.877 18.3053 124.328 17.7073C123.781 17.1106 123.508 16.3579 123.508 15.4505C123.508 14.5015 123.789 13.7228 124.354 13.1183C124.92 12.5138 125.68 12.2109 126.638 12.2109C127.56 12.2109 128.302 12.5086 128.862 13.1053C129.396 13.6851 129.664 14.4339 129.664 15.3491ZM128.216 15.3933C128.216 14.8278 128.09 14.3429 127.841 13.9386C127.546 13.4498 127.13 13.2054 126.586 13.2054C126.026 13.2054 125.6 13.4498 125.305 13.9386C125.054 14.3429 124.93 14.8356 124.93 15.418C124.93 15.9835 125.056 16.4684 125.305 16.8727C125.608 17.3615 126.029 17.6059 126.573 17.6059C127.106 17.6059 127.526 17.3576 127.828 16.8597C128.085 16.4476 128.216 15.9588 128.216 15.3933Z" fill="white"/>
<path d="M137.18 18.46H135.784V14.95C135.784 13.8684 135.363 13.3276 134.516 13.3276C134.101 13.3276 133.767 13.4758 133.508 13.7735C133.249 14.0712 133.12 14.4222 133.12 14.8239V18.4587H131.721V14.0829C131.721 13.5447 131.705 12.961 131.672 12.3292H132.899L132.964 13.2873H133.003C133.167 12.9896 133.409 12.7439 133.727 12.5476C134.107 12.3188 134.529 12.2031 134.995 12.2031C135.58 12.2031 136.068 12.3877 136.456 12.7582C136.94 13.2119 137.18 13.8892 137.18 14.7888V18.46Z" fill="white"/>
<path d="M146.578 13.3592H145.039V16.3362C145.039 17.0928 145.313 17.4711 145.854 17.4711C146.105 17.4711 146.313 17.4503 146.477 17.4074L146.513 18.4409C146.237 18.5423 145.874 18.593 145.427 18.593C144.875 18.593 144.446 18.4292 144.135 18.1016C143.823 17.774 143.669 17.2228 143.669 16.4493V13.3592H142.75V12.3387H143.669V11.2155L145.038 10.8125V12.3374H146.577V13.3592H146.578Z" fill="white"/>
<path d="M153.982 18.4635H152.583V14.9795C152.583 13.881 152.162 13.3311 151.318 13.3311C150.67 13.3311 150.227 13.6496 149.985 14.2866C149.943 14.4205 149.919 14.5843 149.919 14.7767V18.4622H148.523V9.52344H149.919V13.2167H149.946C150.386 12.5446 151.017 12.2092 151.834 12.2092C152.413 12.2092 152.891 12.3938 153.271 12.7643C153.745 13.2258 153.982 13.9122 153.982 14.8196V18.4635Z" fill="white"/>
<path d="M161.611 15.106C161.611 15.3504 161.593 15.5558 161.559 15.7235H157.369C157.387 16.3293 157.587 16.7908 157.975 17.1106C158.33 17.3966 158.787 17.5396 159.347 17.5396C159.967 17.5396 160.533 17.4434 161.042 17.2497L161.261 18.1961C160.665 18.4483 159.963 18.5744 159.151 18.5744C158.178 18.5744 157.411 18.2949 156.857 17.7359C156.299 17.1769 156.023 16.4268 156.023 15.4856C156.023 14.5613 156.281 13.7917 156.799 13.1781C157.341 12.5229 158.073 12.1953 158.997 12.1953C159.901 12.1953 160.587 12.5229 161.051 13.1781C161.426 13.6981 161.611 14.3416 161.611 15.106ZM160.278 14.7537C160.289 14.3494 160.197 14.001 160.007 13.7072C159.765 13.3289 159.395 13.1391 158.895 13.1391C158.439 13.1391 158.067 13.3237 157.783 13.6942C157.551 13.9893 157.414 14.3416 157.369 14.7537H160.278Z" fill="white"/>
<path d="M71.5269 41.9567H68.4989L66.8402 36.875H61.0749L59.4949 41.9567H56.5469L62.2589 24.6562H65.7869L71.5269 41.9567ZM66.3402 34.743L64.8402 30.2255C64.6815 29.764 64.3842 28.6772 63.9455 26.9664H63.8922C63.7175 27.7022 63.4362 28.789 63.0495 30.2255L61.5762 34.743H66.3402Z" fill="white"/>
<path d="M86.2198 35.5667C86.2198 37.6883 85.6318 39.3653 84.4558 40.5964C83.4024 41.6923 82.0944 42.2396 80.5331 42.2396C78.8478 42.2396 77.6371 41.6494 76.8998 40.469H76.8464V47.0405H74.0038V33.5894C74.0038 32.2556 73.9678 30.8867 73.8984 29.4827H76.3984L76.5571 31.46H76.6104C77.5584 29.9702 78.9971 29.2266 80.9278 29.2266C82.4371 29.2266 83.6971 29.8077 84.7051 30.9712C85.7158 32.136 86.2198 33.6674 86.2198 35.5667ZM83.3238 35.6681C83.3238 34.4539 83.0438 33.4529 82.4811 32.6651C81.8664 31.8435 81.0411 31.4327 80.0064 31.4327C79.3051 31.4327 78.6678 31.6615 78.0984 32.1126C77.5278 32.5676 77.1544 33.1617 76.9798 33.8975C76.8918 34.2407 76.8478 34.5215 76.8478 34.7425V36.8225C76.8478 37.7299 77.1331 38.4956 77.7038 39.1209C78.2744 39.7462 79.0158 40.0582 79.9278 40.0582C80.9984 40.0582 81.8318 39.6552 82.4278 38.8518C83.0251 38.0471 83.3238 36.9863 83.3238 35.6681Z" fill="white"/>
<path d="M100.929 35.5667C100.929 37.6883 100.341 39.3653 99.164 40.5964C98.112 41.6923 96.804 42.2396 95.2427 42.2396C93.5574 42.2396 92.3467 41.6494 91.6107 40.469H91.5574V47.0405H88.7147V33.5894C88.7147 32.2556 88.6787 30.8867 88.6094 29.4827H91.1094L91.268 31.46H91.3214C92.268 29.9702 93.7067 29.2266 95.6387 29.2266C97.1467 29.2266 98.4067 29.8077 99.4174 30.9712C100.424 32.136 100.929 33.6674 100.929 35.5667ZM98.0334 35.6681C98.0334 34.4539 97.752 33.4529 97.1894 32.6651C96.5747 31.8435 95.752 31.4327 94.716 31.4327C94.0134 31.4327 93.3774 31.6615 92.8067 32.1126C92.236 32.5676 91.864 33.1617 91.6894 33.8975C91.6027 34.2407 91.5574 34.5215 91.5574 34.7425V36.8225C91.5574 37.7299 91.8427 38.4956 92.4107 39.1209C92.9814 39.7449 93.7227 40.0582 94.6374 40.0582C95.708 40.0582 96.5414 39.6552 97.1374 38.8518C97.7347 38.0471 98.0334 36.9863 98.0334 35.6681Z" fill="white"/>
<path d="M117.383 37.1086C117.383 38.5802 116.859 39.7775 115.807 40.7018C114.651 41.7119 113.042 42.2163 110.974 42.2163C109.064 42.2163 107.534 41.8575 106.375 41.1386L107.034 38.8285C108.282 39.5643 109.651 39.9335 111.143 39.9335C112.214 39.9335 113.047 39.6969 113.646 39.2263C114.242 38.7557 114.539 38.1239 114.539 37.3361C114.539 36.6341 114.294 36.0426 113.802 35.5629C113.312 35.0832 112.495 34.6373 111.354 34.2252C108.247 33.0955 106.695 31.4406 106.695 29.2644C106.695 27.8422 107.239 26.6761 108.328 25.7687C109.414 24.86 110.862 24.4062 112.672 24.4062C114.287 24.4062 115.628 24.6806 116.699 25.2279L115.988 27.4873C114.988 26.9569 113.858 26.6917 112.592 26.6917C111.592 26.6917 110.811 26.9322 110.251 27.4106C109.778 27.8383 109.54 28.3596 109.54 28.9771C109.54 29.6609 109.811 30.2264 110.355 30.671C110.828 31.0818 111.688 31.5264 112.936 32.0061C114.463 32.6054 115.584 33.3061 116.306 34.1095C117.024 34.9103 117.383 35.9126 117.383 37.1086Z" fill="white"/>
<path d="M126.784 31.5633H123.651V37.62C123.651 39.1605 124.203 39.9301 125.31 39.9301C125.818 39.9301 126.239 39.8872 126.572 39.8014L126.651 41.9061C126.091 42.1102 125.354 42.2129 124.44 42.2129C123.318 42.2129 122.44 41.8788 121.807 41.2119C121.176 40.5437 120.859 39.4231 120.859 37.8488V31.5607H118.992V29.4807H120.859V27.1966L123.651 26.375V29.4807H126.784V31.5633Z" fill="white"/>
<path d="M140.923 35.6239C140.923 37.5414 140.36 39.1157 139.237 40.3468C138.06 41.6143 136.497 42.2461 134.549 42.2461C132.672 42.2461 131.177 41.639 130.063 40.4248C128.948 39.2106 128.391 37.6779 128.391 35.8306C128.391 33.8975 128.964 32.3141 130.115 31.083C131.263 29.8506 132.812 29.2344 134.76 29.2344C136.637 29.2344 138.148 29.8415 139.288 31.057C140.379 32.2361 140.923 33.7584 140.923 35.6239ZM137.973 35.7136C137.973 34.5631 137.721 33.5764 137.211 32.7535C136.615 31.7577 135.763 31.2611 134.659 31.2611C133.516 31.2611 132.648 31.759 132.052 32.7535C131.541 33.5777 131.289 34.58 131.289 35.7656C131.289 36.9161 131.541 37.9028 132.052 38.7244C132.667 39.7202 133.525 40.2168 134.633 40.2168C135.719 40.2168 136.571 39.7098 137.185 38.6984C137.709 37.8599 137.973 36.8628 137.973 35.7136Z" fill="white"/>
<path d="M150.158 31.9202C149.877 31.8695 149.577 31.8435 149.262 31.8435C148.262 31.8435 147.489 32.2114 146.945 32.9485C146.471 33.5985 146.234 34.4201 146.234 35.412V41.9575H143.392L143.419 33.4113C143.419 31.9735 143.383 30.6644 143.312 29.484H145.789L145.893 31.8708H145.971C146.271 31.0505 146.745 30.3901 147.393 29.8948C148.026 29.4489 148.71 29.2266 149.447 29.2266C149.71 29.2266 149.947 29.2448 150.158 29.2773V31.9202Z" fill="white"/>
<path d="M162.878 35.1298C162.878 35.6264 162.845 36.045 162.774 36.3869H154.246C154.28 37.6193 154.692 38.5618 155.484 39.2118C156.202 39.7929 157.132 40.0841 158.273 40.0841C159.536 40.0841 160.688 39.8878 161.724 39.4939L162.169 41.4179C160.958 41.9327 159.529 42.1888 157.88 42.1888C155.896 42.1888 154.338 41.6194 153.205 40.4819C152.074 39.3444 151.508 37.8169 151.508 35.9007C151.508 34.0196 152.034 32.4531 153.089 31.2038C154.193 29.87 155.685 29.2031 157.562 29.2031C159.406 29.2031 160.802 29.87 161.75 31.2038C162.501 32.2633 162.878 33.5737 162.878 35.1298ZM160.168 34.4109C160.186 33.5893 160.001 32.8795 159.616 32.2802C159.124 31.5093 158.368 31.1245 157.35 31.1245C156.421 31.1245 155.665 31.5002 155.088 32.2542C154.614 32.8535 154.333 33.5724 154.246 34.4096H160.168V34.4109Z" fill="white"/>
<g filter="url(#filter1_b_127_695)">
<path d="M378 46.0063C378 48.7774 375.709 51.0221 372.874 51.0221H205.132C202.3 51.0221 200 48.7774 200 46.0063V6.00674C200 3.23691 202.3 0.984375 205.132 0.984375H372.873C375.709 0.984375 377.999 3.23691 377.999 6.00674L378 46.0063Z" fill="white" fill-opacity="0.08"/>
</g>
<path d="M213.915 10.8034C213.524 11.2031 213.297 11.8255 213.297 12.6315V41.381C213.297 42.187 213.524 42.8094 213.915 43.2091L214.012 43.2969L230.535 27.1931V26.8129L214.012 10.7091L213.915 10.8034Z" fill="url(#paint0_linear_127_695)"/>
<path d="M236.033 32.5625L230.531 27.1919V26.8116L236.04 21.441L236.163 21.5109L242.686 25.1298C244.548 26.1567 244.548 27.8468 242.686 28.8803L236.163 32.4926L236.033 32.5625Z" fill="url(#paint1_linear_127_695)"/>
<path d="M236.166 32.4961L230.534 27.0052L213.914 43.2113C214.532 43.8451 215.541 43.9215 216.687 43.2877L236.166 32.4961Z" fill="url(#paint2_linear_127_695)"/>
<path d="M236.166 21.5169L216.687 10.7253C215.541 10.0981 214.532 10.1744 213.914 10.8082L230.534 27.0078L236.166 21.5169Z" fill="url(#paint3_linear_127_695)"/>
<path d="M263.219 14.3221C263.219 15.4076 262.886 16.2769 262.229 16.9253C261.474 17.6939 260.491 18.0807 259.286 18.0807C258.134 18.0807 257.151 17.6874 256.344 16.9123C255.536 16.1258 255.133 15.1606 255.133 14.0052C255.133 12.8498 255.536 11.8846 256.344 11.1046C257.151 10.3229 258.134 9.92969 259.286 9.92969C259.859 9.92969 260.406 10.0451 260.928 10.2596C261.448 10.4757 261.871 10.7682 262.178 11.1289L261.481 11.8147C260.946 11.1988 260.218 10.8949 259.286 10.8949C258.446 10.8949 257.718 11.1809 257.099 11.7578C256.488 12.3363 256.181 13.0854 256.181 14.0052C256.181 14.9249 256.488 15.6806 257.099 16.2591C257.718 16.8294 258.446 17.1219 259.286 17.1219C260.178 17.1219 260.928 16.8294 261.519 16.2526C261.909 15.8707 262.131 15.3442 262.189 14.6714H259.286V13.7322H263.159C263.206 13.9353 263.219 14.1319 263.219 14.3221Z" fill="white"/>
<path d="M269.364 11.0665H265.725V13.5365H269.005V14.4757H265.725V16.9457H269.364V17.9029H264.695V10.1094H269.364V11.0665Z" fill="white"/>
<path d="M273.699 17.9029H272.669V11.0665H270.438V10.1094H275.932V11.0665H273.699V17.9029Z" fill="white"/>
<path d="M279.914 17.9029V10.1094H280.942V17.9029H279.914Z" fill="white"/>
<path d="M285.496 17.9029H284.474V11.0665H282.234V10.1094H287.736V11.0665H285.496V17.9029Z" fill="white"/>
<path d="M298.139 16.8993C297.35 17.6874 296.374 18.0807 295.209 18.0807C294.037 18.0807 293.06 17.6874 292.272 16.8993C291.485 16.1128 291.094 15.1476 291.094 14.0052C291.094 12.8628 291.485 11.8976 292.272 11.1111C293.06 10.3229 294.037 9.92969 295.209 9.92969C296.367 9.92969 297.344 10.3229 298.132 11.1176C298.925 11.9106 299.317 12.8693 299.317 14.0052C299.317 15.1476 298.925 16.1128 298.139 16.8993ZM293.034 16.2461C293.627 16.8294 294.349 17.1219 295.209 17.1219C296.062 17.1219 296.79 16.8294 297.377 16.2461C297.969 15.6627 298.269 14.9136 298.269 14.0052C298.269 13.0968 297.969 12.3477 297.377 11.7643C296.79 11.1809 296.062 10.8884 295.209 10.8884C294.349 10.8884 293.627 11.1809 293.034 11.7643C292.442 12.3477 292.142 13.0968 292.142 14.0052C292.142 14.9136 292.442 15.6627 293.034 16.2461Z" fill="white"/>
<path d="M300.766 17.9029V10.1094H302.016L305.902 16.1706H305.947L305.902 14.6724V10.1094H306.931V17.9029H305.857L301.787 11.5426H301.742L301.787 13.0474V17.9029H300.766Z" fill="white"/>
<path d="M290.845 29.2822C287.714 29.2822 285.155 31.6059 285.155 34.8121C285.155 37.9922 287.714 40.3403 290.845 40.3403C293.984 40.3403 296.542 37.9922 296.542 34.8121C296.542 31.6059 293.984 29.2822 290.845 29.2822ZM290.845 38.1628C289.127 38.1628 287.649 36.7799 287.649 34.8121C287.649 32.8182 289.127 31.4597 290.845 31.4597C292.564 31.4597 294.049 32.8182 294.049 34.8121C294.049 36.7799 292.564 38.1628 290.845 38.1628ZM278.43 29.2822C275.292 29.2822 272.74 31.6059 272.74 34.8121C272.74 37.9922 275.292 40.3403 278.43 40.3403C281.567 40.3403 284.12 37.9922 284.12 34.8121C284.12 31.6059 281.567 29.2822 278.43 29.2822ZM278.43 38.1628C276.71 38.1628 275.227 36.7799 275.227 34.8121C275.227 32.8182 276.71 31.4597 278.43 31.4597C280.149 31.4597 281.627 32.8182 281.627 34.8121C281.627 36.7799 280.149 38.1628 278.43 38.1628ZM263.657 30.9771V33.3268H269.412C269.244 34.6398 268.794 35.6051 268.104 36.2778C267.264 37.0903 265.955 37.9922 263.657 37.9922C260.115 37.9922 257.342 35.2053 257.342 31.7522C257.342 28.2991 260.115 25.5122 263.657 25.5122C265.572 25.5122 266.965 26.2418 267.994 27.1876L269.692 25.5317C268.254 24.1927 266.34 23.1641 263.657 23.1641C258.8 23.1641 254.719 27.0169 254.719 31.7522C254.719 36.4874 258.8 40.3403 263.657 40.3403C266.282 40.3403 268.254 39.5018 269.804 37.9288C271.392 36.3802 271.887 34.2027 271.887 32.4444C271.887 31.8984 271.84 31.3963 271.757 30.9771H263.657ZM324.067 32.7987C323.599 31.5621 322.154 29.2822 319.21 29.2822C316.294 29.2822 313.865 31.5231 313.865 34.8121C313.865 37.9093 316.269 40.3403 319.49 40.3403C322.095 40.3403 323.599 38.7917 324.217 37.8898L322.284 36.6337C321.639 37.5534 320.76 38.1628 319.49 38.1628C318.229 38.1628 317.324 37.5989 316.744 36.4874L324.329 33.4276L324.067 32.7987ZM316.334 34.6398C316.269 32.5078 318.032 31.4158 319.295 31.4158C320.285 31.4158 321.125 31.8984 321.405 32.5891L316.334 34.6398ZM310.169 40.0039H312.662V23.7539H310.169V40.0039ZM306.085 30.5139H306.002C305.442 29.8672 304.374 29.2822 303.02 29.2822C300.18 29.2822 297.584 31.7132 297.584 34.8299C297.584 37.9288 300.18 40.3403 303.02 40.3403C304.374 40.3403 305.442 39.7504 306.002 39.0842H306.085V39.8772C306.085 41.9913 304.927 43.1272 303.059 43.1272C301.535 43.1272 300.59 42.0547 300.2 41.1528L298.032 42.0352C298.657 43.5009 300.312 45.3047 303.059 45.3047C305.982 45.3047 308.449 43.6277 308.449 39.5473V29.6186H306.085V30.5139ZM303.234 38.1628C301.515 38.1628 300.077 36.7604 300.077 34.8299C300.077 32.8816 301.515 31.4597 303.234 31.4597C304.927 31.4597 306.262 32.8816 306.262 34.8299C306.262 36.7604 304.927 38.1628 303.234 38.1628ZM335.74 23.7539H329.777V40.0039H332.264V33.8468H335.74C338.502 33.8468 341.21 31.8984 341.21 28.7996C341.21 25.7023 338.495 23.7539 335.74 23.7539ZM335.805 31.5864H332.264V26.0143H335.805C337.662 26.0143 338.722 27.5174 338.722 28.7996C338.722 30.0573 337.662 31.5864 335.805 31.5864ZM351.177 29.2513C349.38 29.2513 347.512 30.0248 346.744 31.7392L348.95 32.6411C349.425 31.7392 350.299 31.4467 351.222 31.4467C352.512 31.4467 353.82 32.2023 353.84 33.5364V33.7071C353.39 33.4536 352.427 33.0782 351.242 33.0782C348.865 33.0782 346.444 34.3538 346.444 36.7344C346.444 38.9119 348.39 40.3143 350.579 40.3143C352.252 40.3143 353.175 39.5782 353.755 38.7218H353.84V39.9779H356.242V33.7444C356.242 30.8633 354.035 29.2513 351.177 29.2513ZM350.877 38.1563C350.064 38.1563 348.93 37.7631 348.93 36.7799C348.93 35.5222 350.344 35.0396 351.567 35.0396C352.662 35.0396 353.175 35.2752 353.84 35.5856C353.645 37.0903 352.317 38.1563 350.877 38.1563ZM364.992 29.6072L362.134 36.6516H362.049L359.094 29.6072H356.412L360.852 39.4514L358.319 44.9293H360.917L367.759 29.6072H364.992ZM342.577 40.0039H345.07V23.7539H342.577V40.0039Z" fill="white"/>
<defs>
<filter id="filter0_b_127_695" x="-9" y="-8.01562" width="198" height="70.0391" filterUnits="userSpaceOnUse" color-interpolation-filters="sRGB">
<feFlood flood-opacity="0" result="BackgroundImageFix"/>
<feGaussianBlur in="BackgroundImage" stdDeviation="5"/>
<feComposite in2="SourceAlpha" operator="in" result="effect1_backgroundBlur_127_695"/>
<feBlend mode="normal" in="SourceGraphic" in2="effect1_backgroundBlur_127_695" result="shape"/>
</filter>
<filter id="filter1_b_127_695" x="190" y="-9.01562" width="198" height="70.0391" filterUnits="userSpaceOnUse" color-interpolation-filters="sRGB">
<feFlood flood-opacity="0" result="BackgroundImageFix"/>
<feGaussianBlur in="BackgroundImage" stdDeviation="5"/>
<feComposite in2="SourceAlpha" operator="in" result="effect1_backgroundBlur_127_695"/>
<feBlend mode="normal" in="SourceGraphic" in2="effect1_backgroundBlur_127_695" result="shape"/>
</filter>
<linearGradient id="paint0_linear_127_695" x1="229.068" y1="41.6804" x2="207.258" y2="19.311" gradientUnits="userSpaceOnUse">
<stop stop-color="#00A0FF"/>
<stop offset="0.0066" stop-color="#00A1FF"/>
<stop offset="0.2601" stop-color="#00BEFF"/>
<stop offset="0.5122" stop-color="#00D2FF"/>
<stop offset="0.7604" stop-color="#00DFFF"/>
<stop offset="1" stop-color="#00E3FF"/>
</linearGradient>
<linearGradient id="paint1_linear_127_695" x1="245.11" y1="26.9999" x2="212.848" y2="26.9999" gradientUnits="userSpaceOnUse">
<stop stop-color="#FFE000"/>
<stop offset="0.4087" stop-color="#FFBD00"/>
<stop offset="0.7754" stop-color="#FFA500"/>
<stop offset="1" stop-color="#FF9C00"/>
</linearGradient>
<linearGradient id="paint2_linear_127_695" x1="233.103" y1="24.0203" x2="203.527" y2="-6.31438" gradientUnits="userSpaceOnUse">
<stop stop-color="#FF3A44"/>
<stop offset="1" stop-color="#C31162"/>
</linearGradient>
<linearGradient id="paint3_linear_127_695" x1="209.73" y1="52.7788" x2="222.938" y2="39.2331" gradientUnits="userSpaceOnUse">
<stop stop-color="#32A071"/>
<stop offset="0.0685" stop-color="#2DA771"/>
<stop offset="0.4762" stop-color="#15CF74"/>
<stop offset="0.8009" stop-color="#06E775"/>
<stop offset="1" stop-color="#00F076"/>
</linearGradient>
</defs>
</svg>
